@startuml
skinparam groupInheritance 1

skinparam package<<Layout>> {
  borderColor Transparent
  backgroundColor Transparent
  fontColor Transparent
  stereotypeFontColor Transparent
  BorderThickness 10
}

namespace Perfils{
class DadesRepartidor
class DadesCuiner
class DadesClient
}

namespace Comanda {
class Plat
class DadesComanda
}

namespace Xats {
 package p1 <<Layout>>{
class Xat
}
class Missatge
}

namespace GestioSubscripcio {
class DadesSubscripcio
}

namespace Usuari{
class DadesUsuariGeneral
}

namespace CorreuElectronic {
class DadesCorreuElectronic
}

DadesClient -left- DadesSubscripcio


DadesUsuariGeneral <|-down- DadesRepartidor
DadesUsuariGeneral <|-down- DadesCuiner
DadesUsuariGeneral <|-down- DadesClient
DadesRepartidor <|-down- DadesClient
DadesRepartidor <|-down- DadesCuiner

DadesUsuariGeneral - DadesCorreuElectronic
DadesComanda -left- Xat

DadesCuiner "1" -down- "1.." Plat
DadesClient "1" --down-- "0..3" DadesComanda
DadesRepartidor "1" --down-- "0..*" DadesComanda
DadesCuiner "1" -- "0..*" DadesComanda
Plat "1.." -down- "0..*" DadesComanda
Xat "1" *-- "1..*" Missatge

DadesClient "1" -down- "0..*" Xat
DadesCuiner "1" -down- "0..*" Xat
@enduml