@startuml
skinparam groupInheritance 1
skinparam linetype ortho
skinparam packageStyle rectangle
skinparam shadowing false
skinparam nodesep 25
skinparam ranksep 60

skinparam package<<Layout>> {
  borderColor Transparent
  backgroundColor Transparent
  fontColor Transparent
  stereotypeFontColor Transparent
  BorderThickness 10
}


namespace Perfils{
enum GestorComptes {
+void getDadesPerfil(DadesUsuariGeneral u)
+void SetDisp(DadesCuiner c, bool disp)
+void SetHoraDisp(DadesCuiner c, Date h)
+int verificarDades(correu, contrassenya)
+bool login(correu, contrassenya)
+void guardarDades(query)
+void EliminarCompte(correu, contrassenya)
+String getNomRepartidor(int idRepartidor)
+Date getHorariCuiner(String nomCuiner)
+location getUbiUsuari(String nom)
+bool getPlaMensual(string nom)
+location getLocalitzacions()
+DadesRepartidor repartidorMesProper(location l[])
+void valoracioCuiner(String nomCuiner, DadesComanda c, int valoracio)
+DadesCuiners getCuinersDisponibles()
+void seleccionarCuiner(int id)
+location getUbicacioRepartidor(DadesRepartidor repartidor)
+void SubscriurePlaMensual(usuari)
+void vincularCompteBancari()
+void introudirIBAN(String IBAN)

}

class DadesRepartidor {
-ubi: location
-nom: String
+String getNom()
+location getLocalitzacio()
}

class DadesCuiner {
-plats[]: Plat
-nom: String
-horari[]: Date
-disp: bool
-ranking: int
-repercussio: float
-disponible: bool 
+void AfegirPlat(Plat p)
+void getPlats(&Plat[])
+void getDades()
+void SetDisp(bool disp)
+void SetHoraDisp(Date h)
+void aplicarValoracio(DadesComanda c, int valoracio)
+void actualitzarRepercussio()
+Date getHorari()
+getSiDisponible(Date horaActual)
}

class DadesClient {
+bool getPlaMensual()
+int getDadesClient()
+void inscriurePlaMensual()
}


class DadesUsuariGeneral {
-correu_electrònic: String
-contrassenya: String
-telefon: int
-id: int
-nom: String
-ubicacio: location
-plaMensual: bool
-iban: int
+void getDadesPerfil()
+void modificarIBAN()
+void validarCompteBancari(String IBAN)
+bool validarPerfil()

}
interface InterfícieExternaCorreu {
+void vincularCompte(DadesUsuari)  
}

interface InterfícieExternaGPS{
+location getUbi()
}

namespace Comanda {
 package p2 <<Layout>>{
enum GestorComandes {
+void valorarComanda(DadesComanda c, int valoracio)
+Plat getLlistaPlats()
+DadesComanda crearComanda(Plat plats[])
+int getNComandesActives()
+void modificarCaracteristiques(DadesComandes c, Date data,
Date hora, Ingredient i[], String repartidor)
+int getCostEnviament(DadesComanda c)
+void comandaPendentPagament(DadesComanda c)
+void mostrarIngredientsPlat(DadesComanda c, Plat p)
+void modificarIngredients(DadesComanda c, Plat p, Ingredient i[])
+void escollirRepartidor(DadesComanda c, int opcio)
+void setCostEnviament(DadesComanda c, float n)
+void setCostEnviament(DadesComanda c, location ubi1,
location ubi2, bool plaMensual)
+void acceptarRepartir(DadesComanda c, int idRepartidor)
+void denegarRepartir()
+void modificarDataHora(Date dataIHora)
+DadesComanda comandesPendents()
+DadesEnviament veureInfoEnviament(DadesComanda c)
+void acceptarComandaRepartir(DadesComanda c, int idRepartidor)
+void descartarComandaRepartir(DadesComanda c, int idRepartidor)
+string getDadesComanda(DadesComanda c)
+void AcceptarComanda(DadesComanda c)
+void AcabarComanda(DadesComanda c)
+void RebutjarComanda(DadesComanda c)
+void getComandesPrèvies()
+int getImport(comanda)
+void efectuarTransferencia(DadesComanda comanda, int import)
+void repetirComanda(DadesComanda comanda)
+consultarComandesActives()
+void mostrarUbicacioComandaEspecifica()
+void getIngressosPendents(DadesUsuariGeneral usuari)
+void demanarIngres(float ingres, DadesUsuariGeneral usuari)



}

class DadesComanda {
-dataIHora: Date
-nomClient: String
-nomCuiner: String
-nomRepartidor: String
-idRepartidor: int
-idClient: int
-costEnviament: float
-preuTotal: float
-idComanda: String
-valoracio: int
-plats[]: Plat
-status: String
-pendentRepartir: bool
-pendentPagament: bool
-dadesPagament: DadesPagament
-dadesEnviament: DadesEnviament
+DadesComanda crearComanda(Plat p[])
+String getNomClient()
+String getNomCuiner()
+float getPreuTotal()
+String getId()
+(String nom1, String nom2, float preu, String id) getDades()
+void AfegirPlat(Plat p)
+void getPlats(&Plat[])
+void AcceptarComanda()
+void AcabarComanda()
+void RebutjarComanda()
+void assignarRepartidor(String nom, int idRepartidor)
+bool getPendentRepartir()
+bool getPendentPagament()
+void modificarDataHora(Date dataIHora)
+void opcioRepartidor(int opcio)
+Ingredient getIngredients(Plat p)
+void modificarPlat(Plat p, Ingredient ing[])
+void modificarCaracteristiques(Date dataIHora,
Ingredient ing[], String nomRepartidor)
+void setCostEnviament()
+void calcularPreuTotal()
+void setValoracio(int v)
+int getValoracio()
+string getDades()
+int getImport()
+int getDataClient()
+void ferComanda()
+void getData(DadesComanda c)
+void getDadesSiNoActiva(DadesComanda c)
+float getImport(DadesCuiner cuiner)


}

class DadesPagament {
-IBAN: String
+String getIBAN()
-dataPagament: Date
+Date getDataPagament()
}



class DadesEnviament {
-opcio: int
-nomRepartidor: String
-idRepartidor: int
-desti: location
-origen: location
-import: int
+void opcioRepartidor(int opcio)
+void assignarRepartidor(String nom, int idRepartidor)
+location getInformacio()
+getImport(int repartidor)

}
}

interface InterfícieEnviaments {
+void modificarDataHora(Date dataIHora)
+void dataErronea()
+void horaNoDisponible(Date horari[])
+void modificacioCorrecte()
+void comandaEnEnviament(String nomRepartidor)
+void enviamentEnEspera()
+void novaComandaARepartir(location ubiClient)
+void interactuaCuiner()
+void mostrarHistoricEnviaments()
+void demanarIngres()
+void mostrarBotoCobrarIngressos()
+void mostrarHistoricComandes()
+void mostrarBotoCobrarIngressos()
}

interface InterfícieExternaBanc{
+void depositarIngres(int IBAN)
+void mostrarBotoCobrarIngressos()
+void validarCompteBancari(usuari)
+void validarPerfil(usuari)
+void inscriurePlaMensual()
+void introuditIBAN(int i)

+void introduirIBAN()
+void demanarIngres(float ingres, int compte)
+void efectuarTransferencia(int compte_bancari)
+void acceptarRebutjarTransferencia()
+void depositarIngres(DadesClient usuari)
}

interface InterfícieComandes {
+void PestanyaComandes()
+void MostrarReserves()
+void EntrarReserva(DadesComanda r)
+void MostrarReserva(DadesComanda r)
+void NotificarClient(String m, DadesComanda c=NULL)
+void AcceptarComanda()
+void AcabarComanda()
+void RebutjarComanda()
+void valorarComanda(DadesComanda c, int valoracio)
+void denegarValoracio()
+void puntuacioForaDeRang()
+void valoracioCorrecte()
+void mostrarIngredientsPlat(Ingredient i[])
+void modificarIngredients(Dades c, Plat p, Ingredient i[])
+void denegarModificacio()
+void modificacioCorrecte()
+void escollirRepartidor()
+void repartidorAssignat(location localizacion)
+void comandesPendents()
+void veureInfoEnviament()
+void interactuaComanda()
+void consultarComandesPrevies()
+void mostrarComandesPrevies()
+void ferPagamaent(comanda)
+void mostrarImport(int import)
+void repetirComanda()
+void mostrarComandesActives()
+void mostrarUbicacioComandaEspecifica()
+void mostrarHistoricEnviaments()
+void mostrarBotoCobrarIngressos()
+void mostrarHistoricComandes()
+void mostrarMenu()


}
}

namespace Menú {
package p4 <<Layout>>{

enum GestorPlat {
+Plat crearNouPlat(Cuiner c)
+void ConsultarNomsIguals(Plat p, String nom)
+void AfegirInformació(Plat p, String nom, String desc)
+void AfegirImatge(Plat p, Image img)
+void afegirIngredients(Plat p, (Ingredient ing, bool opcional)[])
+void getDadesPropostes()
+void getDadesPlat(Plat p)
+void AcceptarProposta(Plat p)
+void RebutjarProposta(Plat p, String m="")
+Plat* MostrarPlatsFeed()
+Plat[] MostrarPlatsMenu()
+void ProposarPlat(DadesCuiner cuiner)
+void enviarProposta()
}

class Plat {
-nom: String
-imgs[]: Image
-{field} ings[]: (Ingredient, bool)
-preu: float
-esProposta: bool
+String getNom()
+Ingredient getIngredients()
+void modificarIngredients(Ingredient ing[])
+String getInfo()
+void getImgs(&Image[])
+plat(Cuiner c)
+void afegirIngredients((Ingredient ing, bool opcional)[])
+float getPreu()
+void setEsProposta(bool p)
+void AcceptarProposta()
+void RebutjarProposta()
}

class Ingredient {
-nom: String
-alèrgens[]: String
-opcional: bool
+(nom, alèrgens[]) getDades()
+bool getOpcional()
+Ingredient afegirIngredients()
}

interface InterfíciePropostes {
+void NotificarClient(String notif, Plat p, String missatge="")
+void getDadesPropostes()
+void MostrarPropostes()
+void EntrarProposta()
+void MostrarProposta(Plat p)
+void AcceptarProposta()
+void RebutjarProposta()
+void AfegirMotiuRebuig(String motiu)
+void novaProposta()
}

interface InterfícieMenuPrincipal {
+void iniciarComanda()
+void mostrarPlats(Plat listP[])
+void escollirPlats(Plat plats[])
+void maximComandesActives(int numComandes)
+void comandaCreadaCorrectament(int numComandes)
+void modificarCaracteristiques(DadesComandes c,
Date dataIHora, Ingredient i[], String repartidor)
+void comandaProcessadaCorrectament()
+void PestanyaPerfil()
+void NotificarUsuari(String m)
+void MostrarPerfil()
+void IndicarDisponibilitat(bool disp)
+void IndicarHoraDisponible(Date h)
+void Acces_Menu_Principal()
+void InteractuarPlatMenu()
+DadesUsuariGeneral[] cercarCuiner(query)
+void NotificaError(option)
+void mostrarCuiners()
+void registreCompte(correu, contrassenya)
+void login(correu, contrassenya)
+void realitzarRegistre()
+void confirmarRegistre()
+void mostrarOpcionsOmplirPerfil()
+void omplirDades(query)
+void MissatgeConfirmacio(query)
+void AccessModificarPerfil()
+void IntroduirContrassenya(contrassenya)
+void AccessDonarBaixa()
+void SubscriurePlaMensual()
+void vincularCompteBancari()
}

interface InterfíciePlat {
+void NotificarClient(String missatge)
+void crearNouPlat()
+void AfegirInformació(String nom, String desc)
+void AfegirImatge(Image img)
+void afegirIngredients((Ingredient ing, bool opcional)[])

}
}
}

namespace Xats {

 package p1 <<Layout>>{
class Xat {
-comandaID: String
-XatID: String
-missatges[]: Missatge
+(String nom1, String nom2, String XatID) getDades()
+String CrearNouMissatge()
+void UpdateMissatge(String mId, String txt)
+void adjuntarImatges(String mId, Image imgs[])
+void adjuntarMissatgeDeVeu(String mId, VoiceMessage vMsg)
+void afegirMissatge(String mId)
}
}

class Missatge {
-mId: String
-text: String
-imgs[]: Image
-voiceMsg: VoiceMessage
-status: String
+Missatge()
+String getID()
+void updateText(String txt)
+void adjuntarImatges(Image img[])
+void adjuntarMissatgeDeVeu(VoiceMessage vMsg)
+void setStatus(String status)
}

enum GestorXat {
+void GetXats()
+void GetDadesXat(x)
+String CrearNouMissatge(Xat x)
+void UpdateMissatge(Xat X, String mId, String txt)
+void adjuntarImatges(Xat X, String mId, Image imgs[])
+void adjuntarMissatgeDeVeu(Xat X, String mId, VoiceMessage vMsg)
+void enviarMissatge(Xat X, String mId)
+void enviarNotificació(String mId)
}

interface InterfícieXat {
+void NotificarClient(String missatge)
+void PestanyaXats()
+void MostrarXats(Xats[] xs)
+void MostrarXat(Xat x)
+void CrearNouMissatge()
+void UpdateMissatge(String txt)
+void adjuntarImatge(Image img)
+void adjuntarMissatgeDeVeu(VoiceMessage vMsg)
+void enviarMissatge()
+void enviat(String mId)
}
} 



InterfícieXat -right- GestorXat
InterfícieMenuPrincipal -- GestorComptes
InterfícieMenuPrincipal -- GestorPlat
InterfícieMenuPrincipal -- GestorComandes
InterfícieExternaCorreu -- GestorComptes
InterfícieExternaGPS -- GestorComptes
InterfíciePropostes -- GestorPlat
InterfíciePlat -- GestorPlat
InterfícieExternaBanc -- GestorComandes
InterfícieComandes -- GestorComandes
InterfícieEnviaments -- GestorComandes

DadesUsuariGeneral <|-down- DadesRepartidor
DadesUsuariGeneral <|-down- DadesCuiner
DadesUsuariGeneral <|-down- DadesClient

DadesComanda "1" -right- "1" DadesPagament
DadesComanda "1" -left- "1" DadesEnviament

DadesComanda -- Xat

DadesCuiner "1" -down- "1.." Plat
DadesClient "1" --down-- "    0..*" DadesComanda
DadesRepartidor "1" --down-- "0..*" DadesEnviament
DadesCuiner "1" -down- "          0..3" DadesComanda
Plat "1" -up-o "0..*" DadesComanda
Xat "   1" *- "1..*" Missatge
Plat "1" o-- "1..*" Ingredient

GestorComptes "1" -- "1..*" DadesUsuariGeneral
GestorComandes "1" -up- "1..*" DadesComanda
GestorPlat "     1" -left- "1..*" Plat
GestorXat "1" -up- "1..*" Xat
@enduml