@startuml
skinparam groupInheritance 1

namespace Persones #DDDDDD {
class DadesUsuariNoRegistrat
class DadesUsuariGeneral
class DadesCuiner
class CompteBancari
class DadesRepartidor
class DadesClient
}

DadesUsuariNoRegistrat <|-- DadesUsuariGeneral
DadesUsuariGeneral <|-- DadesCuiner
DadesUsuariGeneral <|-- DadesRepartidor
DadesUsuariGeneral <|-- DadesClient

DadesUsuariGeneral - CompteBancari

@enduml